<svg xmlns="http://www.w3.org/2000/svg" width="130" height="130" viewBox="0 0 130 130">
    <g fill="#000" fill-rule="evenodd" transform="translate(40 40)">
        <path d="M25 0c6.79 0 7.641.029 10.307.15 2.661.122 4.479.544 6.069 1.163 1.644.638 3.038 1.493 4.428 2.883 1.39 1.39 2.245 2.784 2.883 4.428.619 1.59 1.041 3.408 1.163 6.069C49.97 17.359 50 18.21 50 25c0 6.79-.029 7.641-.15 10.307-.122 2.662-.544 4.479-1.163 6.069-.638 1.644-1.493 3.038-2.883 4.428-1.39 1.39-2.784 2.245-4.428 2.884-1.59.618-3.408 1.04-6.069 1.162C32.641 49.97 31.79 50 25 50c-6.79 0-7.641-.029-10.307-.15-2.662-.122-4.479-.544-6.069-1.162-1.644-.64-3.038-1.494-4.428-2.884-1.39-1.39-2.245-2.784-2.884-4.428-.618-1.59-1.04-3.407-1.162-6.069C.03 32.641 0 31.79 0 25c0-6.79.029-7.641.15-10.307.122-2.661.544-4.479 1.162-6.069.64-1.644 1.494-3.038 2.884-4.428 1.39-1.39 2.784-2.245 4.428-2.883C10.214.694 12.031.272 14.693.15 17.359.03 18.21 0 25 0zm0 6c-6.188 0-6.921.024-9.365.135-2.26.103-3.487.48-4.303.798-1.082.42-1.854.923-2.665 1.734-.811.81-1.314 1.583-1.734 2.664-.317.817-.695 2.044-.798 4.304C6.024 18.079 6 18.812 6 25c0 6.188.024 6.921.135 9.365.103 2.26.48 3.487.798 4.304.42 1.081.923 1.853 1.734 2.664.81.811 1.583 1.314 2.665 1.734.816.317 2.043.695 4.303.798 2.443.111 3.176.135 9.365.135s6.922-.024 9.365-.135c2.26-.103 3.487-.48 4.304-.798 1.081-.42 1.853-.923 2.664-1.734.811-.81 1.314-1.583 1.734-2.664.317-.817.695-2.044.798-4.304.111-2.444.135-3.177.135-9.365 0-6.188-.024-6.921-.135-9.365-.103-2.26-.48-3.487-.798-4.304-.42-1.081-.923-1.853-1.734-2.664-.81-.811-1.583-1.314-2.664-1.734-.817-.317-2.044-.695-4.304-.798C31.921 6.024 31.188 6 25 6z"/>
        <path d="M25 13c6.627 0 12 5.373 12 12s-5.373 12-12 12-12-5.373-12-12 5.373-12 12-12zm0 18a6 6 0 1 0 0-12 6 6 0 0 0 0 12z"/>
        <circle cx="37.5" cy="12.5" r="3.5"/>
    </g>
</svg>
