<svg xmlns="http://www.w3.org/2000/svg" width="130" height="130" viewBox="0 0 130 130">
    <path fill="#000" fill-rule="evenodd" d="M40 43.32A3.326 3.326 0 0 1 43.32 40h43.36A3.326 3.326 0 0 1 90 43.32v43.36A3.326 3.326 0 0 1 86.68 90H43.32A3.326 3.326 0 0 1 40 86.68V43.32zm38.333 35.013h-5.525v-8.662c0-2.066-.035-4.723-2.87-4.723-2.877 0-3.316 2.251-3.316 4.576v8.81h-5.519V60.52H66.4v2.435h.076c.737-1.4 2.54-2.877 5.228-2.877 5.595 0 6.63 3.688 6.63 8.486v9.768zm-23.46-20.245a3.206 3.206 0 0 1-3.206-3.211 3.206 3.206 0 0 1 3.206-3.21 3.207 3.207 0 0 1 3.202 3.21 3.207 3.207 0 0 1-3.202 3.21zm-2.768 20.245V60.521h5.532v17.812h-5.532z"/>
</svg>
