<svg width="130" height="130" viewBox="0 0 130 130" fill="none" xmlns="http://www.w3.org/2000/svg">
<path d="M65 35C59.1652 35 53.5695 37.2827 49.4437 41.346C45.3179 45.4093 43 50.9203 43 56.6667C43 75 65 95 65 95C65 95 87 75 87 56.6667C87 53.8214 86.431 51.0039 85.3254 48.3752C84.2197 45.7465 82.5992 43.358 80.5564 41.346C78.5135 39.3341 76.0882 37.7381 73.419 36.6493C70.7499 35.5604 67.8891 35 65 35ZM65 68.2867C62.6664 68.2867 60.3853 67.6052 58.445 66.3283C56.5047 65.0515 54.9924 63.2367 54.0994 61.1134C53.2063 58.9902 52.9727 56.6538 53.4279 54.3997C53.8832 52.1457 55.0069 50.0752 56.657 48.4501C58.3071 46.825 60.4094 45.7183 62.6982 45.2699C64.9869 44.8216 67.3593 45.0517 69.5152 45.9312C71.6711 46.8107 73.5139 48.3 74.8103 50.2109C76.1068 52.1218 76.7988 54.3684 76.7988 56.6667C76.7952 59.7474 75.551 62.7009 73.339 64.8793C71.1271 67.0578 68.1281 68.2831 65 68.2867Z" fill="black"/>
</svg>
