<svg width="512" height="512" viewBox="0 0 512 512" fill="none" xmlns="http://www.w3.org/2000/svg">
<path d="M293.258 424.68L408.389 377.136L381.7 264.868L264.998 308.597L293.258 424.68Z" fill="black"/>
<path d="M145.286 347.879L257.774 304.768L246.955 258.077L229.899 185.339L117.828 228.551L145.286 347.879Z" fill="black"/>
<path d="M146.707 353.911L175.301 471.784L287.506 427.017L259.212 310.783L146.707 353.911Z" fill="black"/>
<path d="M222.893 181.453L171.406 164.825L67.6797 200.591L114.384 223.293L222.893 181.453Z" fill="black"/>
<path d="M90.7226 328.354L116.474 438.749L168.463 469.597L140.437 354.1L90.7226 328.354Z" fill="black"/>
<path d="M376.081 260.415L322.203 234.367L253.543 259.344L263.559 302.572L376.081 260.415Z" fill="black"/>
<path d="M138.613 346.246L111.574 228.774L64 205.638L88.9157 320.517L138.613 346.246Z" fill="black"/>
<path d="M424.659 70.074L368.908 46.8708L280.6 42.5547L330.983 67.9159L424.659 70.074Z" fill="black"/>
<path d="M268.642 43.4023L249.981 161.192L308.173 190.484L326.835 72.6949L268.642 43.4023Z" fill="black"/>
<path d="M332.82 74.1033L314.125 192.06L418.754 192.127L437.332 76.5123L332.82 74.1033Z" fill="black"/>
</svg>
