<svg width="130" height="130" viewBox="0 0 130 130" fill="none" xmlns="http://www.w3.org/2000/svg">
<path fill-rule="evenodd" clip-rule="evenodd" d="M61.0468 58.7932C60.8167 60.4365 59.6242 61.9407 57.9371 62.2782C56.1887 62.6255 54.3883 61.9308 53.4737 60.3678C52.5648 58.8105 52.8369 56.9001 53.9889 55.557C54.9846 54.3934 56.7908 53.9014 58.2381 54.4108C59.9343 55.0071 61.0516 56.4949 61.0921 58.3011C61.0959 58.4713 61.0801 58.6358 61.0468 58.7932ZM56.4435 58.5384L56.4476 58.5092C56.4463 58.519 56.445 58.5288 56.4435 58.5384ZM56.4435 58.0579C56.4475 58.086 56.4508 58.1141 56.4534 58.1423C56.45 58.114 56.4467 58.0859 56.4435 58.0579Z" fill="black"/>
<path fill-rule="evenodd" clip-rule="evenodd" d="M73.9439 62.3882C75.631 62.0508 76.8236 60.5466 77.0537 58.9032C77.0869 58.7458 77.1028 58.5813 77.099 58.4111C77.0584 56.6049 75.9411 55.1171 74.2449 54.5208C72.7977 54.0114 70.9915 54.5034 69.9957 55.667C68.8437 57.0101 68.5716 58.9205 69.4805 60.4778C70.3952 62.0408 72.1956 62.7355 73.9439 62.3882ZM72.4503 58.6484L72.4545 58.6193C72.4532 58.6291 72.4518 58.6388 72.4503 58.6484ZM72.4503 58.1679C72.4538 58.194 72.4567 58.219 72.4592 58.2435C72.4561 58.2182 72.4532 58.193 72.4503 58.1679Z" fill="black"/>
<path fill-rule="evenodd" clip-rule="evenodd" d="M73.1303 71.3657C73.5265 70.8288 73.8801 70.2638 74.187 69.6708C74.7891 68.5246 76.2943 68.2757 77.3479 68.8314C77.8515 69.0977 78.2626 69.6766 78.4131 70.215C78.581 70.8229 78.4652 71.4481 78.1815 71.9981C76.989 74.2963 75.1538 76.2357 72.9829 77.6366C69.6484 79.7902 65.4745 80.427 61.6247 79.5644C57.4797 78.6381 53.7921 75.7668 51.8296 72.0038C51.2333 70.8518 51.5691 69.5435 52.6632 68.8372C53.6763 68.183 55.2683 68.5941 55.8298 69.6708C56.1423 70.2646 56.4923 70.8302 56.8882 71.3677C57.4333 72.0342 58.0429 72.6452 58.7111 73.192C59.4409 73.7305 60.2249 74.1857 61.0499 74.5578C61.8899 74.8802 62.7601 75.1158 63.6508 75.2581C64.5556 75.3536 65.4633 75.3535 66.368 75.2579C67.2499 75.1175 68.1116 74.8886 68.9439 74.568C69.7829 74.191 70.5796 73.7249 71.3204 73.18C71.9835 72.6357 72.5887 72.0281 73.1303 71.3657ZM73.3592 71.0776C73.3393 71.1034 73.3192 71.1292 73.2991 71.1549L73.3592 71.0776ZM69.2605 74.4411C69.2243 74.4562 69.188 74.4711 69.1517 74.4859C69.188 74.4708 69.2242 74.4558 69.2605 74.4411ZM66.0997 75.2978C66.1318 75.2933 66.1641 75.2887 66.1965 75.2841C66.1642 75.2888 66.132 75.2934 66.0997 75.2978ZM66.4696 75.2468C66.5513 75.2361 66.6328 75.226 66.7133 75.2168C66.6321 75.2276 66.5509 75.2376 66.4696 75.2468ZM60.7563 74.4411C60.7736 74.448 60.7908 74.4551 60.808 74.4622C60.7908 74.4552 60.7735 74.4481 60.7563 74.4411ZM56.6577 71.0776L56.7178 71.1549C56.6977 71.1292 56.6776 71.1034 56.6577 71.0776Z" fill="black"/>
<path fill-rule="evenodd" clip-rule="evenodd" d="M82.6893 47.3057C79.0895 43.7263 74.3745 41.2111 69.3531 40.3781C66.9101 39.9728 64.4556 39.8686 61.9952 40.187C60.6521 40.3607 59.3264 40.598 58.0239 40.9801C56.7503 41.3506 55.5056 41.8427 54.3015 42.3984C49.6529 44.552 45.6873 48.2975 43.1922 52.7609C40.7608 57.1143 39.6204 62.2492 40.1124 67.2221C40.3672 69.8098 40.9634 72.2933 41.9707 74.69C43.0012 77.133 44.3848 79.3502 46.1157 81.3706C49.4329 85.2493 54.0352 88.0628 58.9907 89.2727C63.813 90.4479 69.029 90.2163 73.6834 88.4507C74.9338 87.976 76.1553 87.4318 77.3189 86.7718C78.5173 86.0945 79.6288 85.3014 80.7056 84.4504C82.7491 82.8353 84.4974 80.8612 85.9331 78.7018C88.6945 74.5453 90.1302 69.4682 90.0144 64.478C89.8986 59.4705 88.2893 54.4513 85.3137 50.4048C84.509 49.3164 83.6522 48.2686 82.697 47.3134L82.6893 47.3057ZM81.1416 52.5148C80.6023 51.8424 80.0312 51.2008 79.4204 50.59C78.8029 49.9725 78.1539 49.3955 77.4734 48.8511C76.0454 47.7753 74.4918 46.8763 72.8533 46.1631C71.2017 45.5034 69.4799 45.0398 67.7243 44.7802C65.9251 44.5705 64.1091 44.5705 62.3099 44.7802C60.5546 45.0397 58.8332 45.5032 57.1819 46.1627C55.5289 46.8826 53.9669 47.7962 52.5235 48.8802C51.1821 49.9557 49.9611 51.1781 48.8871 52.5208C47.8059 53.9532 46.9028 55.5124 46.1869 57.1571C45.5272 58.8087 45.0636 60.5305 44.804 62.2861C44.5943 64.0853 44.5943 65.9012 44.804 67.7004C45.0636 69.4557 45.5271 71.1771 46.1865 72.8284C46.9065 74.4814 47.82 76.0435 48.904 77.4869C49.9795 78.8283 51.202 80.0493 52.5446 81.1233C53.9771 82.2045 55.5362 83.1076 57.181 83.8235C58.8326 84.4832 60.5544 84.9468 62.3101 85.2064C64.1092 85.4161 65.925 85.4161 67.7242 85.2064C69.4795 84.9468 71.201 84.4833 72.8523 83.8239C74.5053 83.1039 76.0674 82.1903 77.5107 81.1064C78.8522 80.0308 80.0732 78.8084 81.1472 77.4657C82.2283 76.0333 83.1314 74.4741 83.8473 72.8294C84.507 71.1778 84.9706 69.4561 85.2302 67.7005C85.4399 65.9012 85.4399 64.0853 85.2302 62.2861C84.9707 60.5308 84.5072 58.8094 83.8477 57.1581C83.1303 55.5109 82.2206 53.9539 81.1416 52.5148ZM83.7043 56.8075C83.7284 56.8649 83.7522 56.9224 83.7757 56.98C83.7516 56.9225 83.7277 56.865 83.7043 56.8075ZM85.2731 62.5908C85.2609 62.5052 85.2487 62.4185 85.2369 62.3317C85.2495 62.418 85.2616 62.5044 85.2731 62.5908ZM85.2262 62.2516C85.214 62.1597 85.2025 62.0678 85.1921 61.9772C85.204 62.0686 85.2153 62.1601 85.2262 62.2516ZM83.7043 73.179C83.7277 73.1216 83.7516 73.0641 83.7757 73.0066C83.7521 73.0641 83.7283 73.1216 83.7043 73.179ZM81.3771 77.1735C81.3551 77.2019 81.3331 77.2302 81.311 77.2585L81.3771 77.1735ZM77.1974 81.3532L77.2825 81.287C77.2688 81.2977 77.2551 81.3084 77.2414 81.319C77.2268 81.3305 77.2121 81.3419 77.1974 81.3532ZM73.2029 83.6805C73.1455 83.7045 73.088 83.7283 73.0304 83.7519C73.0879 83.7277 73.1454 83.7038 73.2029 83.6805ZM67.4196 85.2493C67.5052 85.2371 67.5918 85.2249 67.6785 85.2131C67.5923 85.2256 67.506 85.2377 67.4196 85.2493ZM67.7586 85.2023C67.8506 85.1902 67.9425 85.1786 68.0332 85.1683C67.9417 85.1802 67.8502 85.1915 67.7586 85.2023ZM56.8313 83.6805C56.8888 83.7038 56.9464 83.7277 57.0039 83.7519C56.9463 83.7283 56.8888 83.7045 56.8313 83.6805ZM52.8369 81.3532C52.8085 81.3313 52.7801 81.3092 52.7518 81.2871L52.8369 81.3532ZM48.6571 77.1735L48.7233 77.2586C48.7012 77.2303 48.6791 77.2019 48.6571 77.1735ZM46.3299 73.179C46.3059 73.1216 46.2821 73.0641 46.2585 73.0065C46.2826 73.064 46.3066 73.1215 46.3299 73.179ZM44.7611 67.3957C44.7733 67.4814 44.7855 67.568 44.7973 67.6548C44.7848 67.5685 44.7727 67.4822 44.7611 67.3957ZM44.8081 67.7348C44.8202 67.8268 44.8318 67.9187 44.8421 68.0094C44.8302 67.9179 44.8189 67.8264 44.8081 67.7348ZM46.3299 56.8075C46.3066 56.865 46.2826 56.9225 46.2585 56.9801C46.2821 56.9224 46.3059 56.8649 46.3299 56.8075ZM48.6571 52.813C48.6792 52.7846 48.7012 52.7562 48.7234 52.7278L48.6571 52.813ZM52.8369 48.6333L52.7517 48.6995C52.78 48.6774 52.8084 48.6553 52.8369 48.6333ZM56.8313 46.3061C56.8888 46.282 56.9463 46.2582 57.0039 46.2347C56.9464 46.2588 56.8888 46.2827 56.8313 46.3061ZM62.6146 44.7372C62.529 44.7495 62.4424 44.7617 62.3556 44.7735C62.4419 44.7609 62.5282 44.7488 62.6146 44.7372ZM62.2755 44.7842C62.1835 44.7964 62.0917 44.8079 62.001 44.8183C62.0924 44.8064 62.1839 44.795 62.2755 44.7842ZM73.2029 46.3061C73.1454 46.2827 73.0879 46.2588 73.0303 46.2347C73.0879 46.2582 73.1455 46.282 73.2029 46.3061Z" fill="black"/>
</svg>
