<svg width="130" height="130" viewBox="0 0 130 130" fill="none" xmlns="http://www.w3.org/2000/svg">
<path d="M61.2021 38.6723C62.3026 36.4426 65.4821 36.4426 66.5825 38.6723L73.1867 52.0537C73.6236 52.9392 74.4683 53.5529 75.4455 53.6949L90.2128 55.8407C92.6734 56.1982 93.6559 59.2221 91.8754 60.9577L81.1897 71.3737C80.4826 72.063 80.16 73.0559 80.3269 74.0291L82.8494 88.7367C83.2698 91.1875 80.6975 93.0563 78.4966 91.8993L65.2883 84.9553C64.4144 84.4958 63.3703 84.4958 62.4963 84.9553L49.288 91.8993C47.0872 93.0563 44.5149 91.1875 44.9352 88.7367L47.4577 74.0291C47.6247 73.0559 47.302 72.063 46.595 71.3737L35.9092 60.9577C34.1287 59.2221 35.1112 56.1982 37.5719 55.8407L52.3392 53.6949C53.3163 53.5529 54.161 52.9392 54.598 52.0537L61.2021 38.6723Z" fill="black"/>
</svg>
