<?xml version="1.0" encoding="UTF-8"?>
<svg width="62px" height="62px" viewBox="0 0 62 62" version="1.1" xmlns="http://www.w3.org/2000/svg" xmlns:xlink="http://www.w3.org/1999/xlink">
    <g stroke="none" stroke-width="1" fill="none" fill-rule="evenodd">
      <path d="M31,58 C16.0883118,58 4,45.9116882 4,31 C4,16.0883118 16.0883118,4 31,4 C45.9116882,4 58,16.0883118 58,31 C58,45.9116882 45.9116882,58 31,58 Z M11.8176294,16.2215729 L8.72904006,18.2273263 L13.1237214,24.9945422 C14.6800725,27.3911127 17.5310124,27.7145482 20.3063722,25.9122085 C23.0817319,24.1098688 23.9458406,21.3738525 22.3894895,18.977282 L17.9948082,12.2100662 L14.9062188,14.2158196 L19.0785643,20.6406682 C19.7976079,21.7478983 19.643913,22.7072956 18.645949,23.355381 C17.6479849,24.0034664 16.7090186,23.7536517 15.9899749,22.6464216 L11.8176294,16.2215729 Z M29.2431982,20.2753347 L28.0969287,13.7745174 L28.1653583,13.7624514 L34.1102575,19.4171409 L36.8902123,18.9269598 L34.7138085,6.58396057 L31.2923257,7.1872603 L32.4204962,13.5854332 L32.3520665,13.5974992 L26.4594812,8.03942118 L23.6453116,8.53563521 L25.8217154,20.8786345 L29.2431982,20.2753347 Z M42.8494155,22.3579348 L44.8100727,9.97883199 L41.1726926,9.40272757 L39.2120353,21.7818304 L42.8494155,22.3579348 Z M21.7862042,41.4098706 L21.3027801,28.3207333 L17.4593514,29.6441319 L18.505988,38.8465131 L18.4402884,38.8691353 L13.5994978,30.9731861 L9.59181994,32.3531403 L17.2693542,42.9651468 L21.7862042,41.4098706 Z M35.2175366,33.6835911 L30.0865166,34.2228831 L29.8758841,32.2188483 L34.6872951,31.7131486 L34.4112938,29.0871721 L29.5998828,29.5928718 L29.3883424,27.5801989 L34.5193624,27.040907 L34.2134005,24.1298738 L25.4198342,25.0541148 L26.7299323,37.5188654 L35.5234985,36.5946244 L35.2175366,33.6835911 Z M21.4001169,49.3584419 C21.0173794,51.830474 22.7789499,53.5340959 26.0989172,54.0599271 C29.3931483,54.581682 31.7675364,53.3044894 32.1683637,50.773765 C32.4863082,48.7663429 31.5432069,47.4473777 29.2077415,46.6465738 L27.5553507,46.0858671 C26.4126748,45.6938307 25.9554444,45.3048311 26.0491973,44.712899 C26.1470263,44.0952306 26.8100391,43.7957208 27.7622778,43.9465406 C28.7402526,44.1014366 29.4317463,44.6770367 29.3351961,45.4531983 L32.6551634,45.9790294 C33.0184523,43.5742685 31.4131637,41.7722841 28.1189326,41.2505292 C25.1678506,40.7831237 22.7731613,42.0219252 22.3764101,44.5269134 C22.0693356,46.4657057 23.0981442,47.9653303 25.309005,48.720017 L26.9013447,49.2712125 C28.1930028,49.722021 28.6082719,50.0428172 28.5172365,50.6175919 C28.422125,51.2181027 27.6836887,51.5496363 26.5941904,51.3770767 C25.6162155,51.2221807 24.8317146,50.6230558 24.8401863,49.9032954 L21.4001169,49.3584419 Z M45.641298,47.8908559 L40.7931578,49.6554346 L40.103962,47.7618849 L44.6501138,46.107221 L43.7470297,43.6260179 L39.200878,45.2806818 L38.5087116,43.3789702 L43.3568518,41.6143915 L42.3557356,38.8638473 L34.04697,41.8879906 L38.3336486,53.6655435 L46.6424143,50.6414001 L45.641298,47.8908559 Z" fill-opacity="0.15" fill="#000000" fill-rule="nonzero"></path>
      <path d="M31,58 C45.9116882,58 58,45.9116882 58,31 C58,16.0883118 45.9116882,4 31,4 C16.0883118,4 4,16.0883118 4,31 C4,45.9116882 16.0883118,58 31,58 Z M31,61.8117647 C13.9831322,61.8117647 0.188235294,48.0168678 0.188235294,31 C0.188235294,13.9831322 13.9831322,0.188235294 31,0.188235294 C48.0168678,0.188235294 61.8117647,13.9831322 61.8117647,31 C61.8117647,48.0168678 48.0168678,61.8117647 31,61.8117647 Z" fill="#FFFFFF" fill-rule="nonzero"></path>
      <path d="M14.7108588,13.3270803 L17.7041537,20.3788413 C18.220005,21.5941107 19.1013265,22.0031799 20.196668,21.538235 C21.2920096,21.0732901 21.6099671,20.1551572 21.0941159,18.9398877 L18.1008209,11.8881268 L21.4907831,10.4491732 L24.6435847,17.8767082 C25.7601312,20.507127 24.4340461,23.0515261 21.3878772,24.3445481 C18.3417084,25.63757 15.5902447,24.8239877 14.4736982,22.1935689 L11.3208966,14.7660339 L14.7108588,13.3270803 Z M31.1677656,20.3451746 L27.6935009,20.3451746 L27.6935009,7.81176471 L30.5510836,7.81176471 L35.3889972,14.3086397 L35.4584825,14.3086397 L35.4584825,7.81176471 L38.9327472,7.81176471 L38.9327472,20.3451746 L36.1099072,20.3451746 L31.2372509,13.7440717 L31.1677656,13.7440717 L31.1677656,20.3451746 Z M44.2056342,24.7588302 L40.7235535,23.5598536 L44.8040326,11.7092817 L48.2861133,12.9082583 L44.2056342,24.7588302 Z M20.1540865,39.863736 L15.4357867,40.6110412 L9.71764706,28.8270651 L13.9040658,28.1640015 L17.3001967,36.780588 L17.3688265,36.7697181 L17.9360674,27.5253952 L21.9509116,26.8895064 L20.1540865,39.863736 Z M34.7230212,34.5871625 L34.5188392,37.5071003 L25.6983742,36.8903133 L26.5726607,24.3874341 L35.3931257,25.0042211 L35.1889437,27.9241589 L30.0422284,27.5642655 L29.9010581,29.583095 L34.7271868,29.9205708 L34.5429989,32.5545799 L29.7168702,32.2171042 L29.5763058,34.2272691 L34.7230212,34.5871625 Z M18.3936098,47.6245073 L21.686804,48.758445 C21.553476,49.4657995 22.2220216,50.1920496 23.1582414,50.5144159 C24.2012231,50.8735433 24.9860111,50.6752746 25.1839553,50.1004028 C25.3734162,49.5501683 25.0201616,49.1621351 23.8264089,48.4938812 L22.3539744,47.6745528 C20.3077516,46.5474195 19.5549799,44.8919269 20.194057,43.0359121 C21.0197673,40.6378754 23.5931915,39.8337275 26.4182759,40.806482 C29.5718584,41.8923476 30.8398478,43.9457112 30.0644957,46.250854 L26.8862758,45.1565051 C27.1161382,44.4089009 26.5351018,43.7219688 25.598882,43.3996025 C24.6872995,43.0857195 23.9823501,43.2655482 23.7787503,43.8568449 C23.5836338,44.4235043 23.9663687,44.8859913 25.0236084,45.4704954 L26.55353,46.3096183 C28.7144563,47.5038055 29.4141938,48.9665005 28.7524945,50.8882148 C27.9183009,53.3108889 25.358203,54.15637 22.2046204,53.0705044 C19.0264005,51.9761556 17.5874231,49.9925219 18.3936098,47.6245073 Z M42.5213566,50.3886541 L43.0296366,53.2712534 L34.3219628,54.8066512 L32.145559,42.4636519 L40.8532328,40.9282541 L41.3615128,43.8108534 L36.2806108,44.7067535 L36.6320329,46.6997672 L41.3964478,45.8596724 L41.8549556,48.4599993 L37.0905407,49.3000942 L37.4404546,51.2845542 L42.5213566,50.3886541 Z M41.7676075,34.8829021 L40.4685433,38.8810109 L36.9660679,37.7429876 L40.8391045,25.8230064 L46.1341204,27.5434614 C49.3144342,28.576808 50.464217,30.6034039 49.6348557,33.1559154 C49.1785728,34.5602098 48.0610285,35.6948515 46.6204354,35.8843249 L47.4156702,41.1382692 L43.500167,39.8660451 L42.9158247,35.2559805 L41.7676075,34.8829021 Z M43.5014826,29.5465835 L42.5191323,32.5699467 L43.9647295,33.0396497 C44.9477356,33.3590477 45.7466893,32.9519604 46.0392472,32.0515599 C46.326437,31.1676805 45.8970436,30.3249484 44.9553403,30.0189705 L43.5014826,29.5465835 Z" fill="#FFFFFF" transform="translate(29.806345, 31.309208) rotate(-10.000000) translate(-29.806345, -31.309208) "></path>
    </g>
</svg>
