<svg width="21" height="24" viewBox="0 0 21 24" fill="none" xmlns="http://www.w3.org/2000/svg">
<path d="M12.7078 21.009L18.8755 18.462L17.4458 12.4476L11.1938 14.7903L12.7078 21.009Z" fill="black"/>
<path d="M4.78062 16.8946L10.8068 14.5851L10.2272 12.0838L9.31346 8.18713L3.30969 10.502L4.78062 16.8946Z" fill="black"/>
<path d="M4.85681 17.2179L6.38866 23.5325L12.3996 21.1343L10.8839 14.9075L4.85681 17.2179Z" fill="black"/>
<path d="M8.93815 7.97896L6.17992 7.08813L0.623169 9.00421L3.12519 10.2204L8.93815 7.97896Z" fill="black"/>
<path d="M1.85767 15.8486L3.23722 21.7627L6.02232 23.4152L4.52093 17.2279L1.85767 15.8486Z" fill="black"/>
<path d="M17.1448 12.209L14.2584 10.8136L10.5802 12.1516L11.1168 14.4674L17.1448 12.209Z" fill="black"/>
<path d="M4.42329 16.8071L2.97475 10.514L0.426147 9.27454L1.76092 15.4287L4.42329 16.8071Z" fill="black"/>
<path d="M19.7471 2.01221L16.7605 0.769183L12.0297 0.537964L14.7288 1.8966L19.7471 2.01221Z" fill="black"/>
<path d="M11.3891 0.583496L10.3894 6.89363L13.5068 8.46288L14.5066 2.15274L11.3891 0.583496Z" fill="black"/>
<path d="M14.8272 2.22803L13.8257 8.54713L19.4308 8.55071L20.4261 2.35708L14.8272 2.22803Z" fill="black"/>
</svg>
