<?xml version="1.0" standalone="no"?>
<!DOCTYPE svg PUBLIC "-//W3C//DTD SVG 20010904//EN" "http://www.w3.org/TR/2001/REC-SVG-20010904/DTD/svg10.dtd">
<svg version="1.0" xmlns="http://www.w3.org/2000/svg" width="300.000000pt" height="300.000000pt" viewBox="0 0 300.000000 300.000000" preserveAspectRatio="xMidYMid meet">
    <metadata>
        Created by potrace 1.10, written by Peter Selinger 2001-2011
    </metadata>
    <g transform="translate(0.000000,300.000000) scale(0.100000,-0.100000)" fill="#000000" stroke="none">
        <path d="M372 2617 l-373 -373 377 -373 377 -373 -374 -374 -374 -374 375 -375 375 -375 375 375 375 375 375 -375 375 -375 375 375 375 375 -375 375 -375 375 374 374 373 373 -368 366 c-203 201 -373 369 -377 373 -4 5 -176 -160 -382 -366 l-375 -374 -370 369 c-204 204 -374 371 -378 373 -4 1 -175 -166 -380 -371z" />
    </g>
</svg>