<?xml version="1.0" standalone="no"?>
<!DOCTYPE svg PUBLIC "-//W3C//DTD SVG 20010904//EN"
 "http://www.w3.org/TR/2001/REC-SVG-20010904/DTD/svg10.dtd">
<svg version="1.0" xmlns="http://www.w3.org/2000/svg"
 width="300.000000pt" height="300.000000pt" viewBox="0 0 300.000000 300.000000"
 preserveAspectRatio="xMidYMid meet">
<metadata>
Created by potrace 1.10, written by Peter Selinger 2001-2011
</metadata>
<g transform="translate(0.000000,300.000000) scale(0.050000,-0.050000)"
fill="#000000" stroke="none">
<path d="M744 5234 l-746 -746 754 -746 753 -746 -747 -748 -748 -748 750
-750 750 -750 750 750 750 750 750 -750 750 -750 750 750 750 750 -750 750
-750 750 747 747 748 748 -738 731 c-405 402 -744 738 -753 746 -8 9 -352
-321 -764 -732 l-749 -749 -741 740 c-407 406 -747 741 -756 744 -8 3 -350
-331 -760 -741z"/>
</g>
</svg>
