<?xml version="1.0" standalone="no"?>
<!DOCTYPE svg PUBLIC "-//W3C//DTD SVG 20010904//EN"
 "http://www.w3.org/TR/2001/REC-SVG-20010904/DTD/svg10.dtd">
<svg version="1.0" xmlns="http://www.w3.org/2000/svg"
 width="900.000000pt" height="900.000000pt" viewBox="0 0 900.000000 900.000000"
 preserveAspectRatio="xMidYMid meet">
<metadata>
Created by potrace 1.10, written by Peter Selinger 2001-2011
</metadata>
<g transform="translate(0.000000,900.000000) scale(0.100000,-0.100000)"
fill="#000000" stroke="none">
<path d="M1117 7862 c-614 -614 -1117 -1122 -1117 -1128 0 -6 502 -511 1115
-1123 613 -612 1115 -1118 1115 -1124 0 -7 -502 -514 -1115 -1127 -613 -613
-1115 -1117 -1115 -1120 0 -10 2230 -2235 2242 -2238 7 -1 515 499 1128 1113
613 613 1119 1115 1125 1115 5 0 512 -502 1125 -1115 613 -613 1119 -1115
1125 -1115 6 0 510 499 1120 1110 610 610 1116 1110 1122 1110 18 0 16 38 -2
42 -14 3 -2235 2217 -2235 2228 0 11 2226 2230 2238 2230 24 0 11 19 -69 96
-45 44 -551 547 -1126 1119 -574 572 -1047 1041 -1051 1043 -4 1 -509 -500
-1122 -1113 -613 -613 -1121 -1115 -1128 -1115 -7 0 -515 501 -1128 1113 -613
611 -1118 1113 -1122 1115 -4 1 -510 -501 -1125 -1116z"/>
</g>
</svg>
